<svg xmlns="http://www.w3.org/2000/svg" viewBox="0 0 1200 700" role="img" aria-labelledby="t d"><title id="t">Return to the mountains</title><desc id="d">A quiet trail leading through dark pines toward a golden mountain pass.</desc><defs><linearGradient id="b" x1="0" y1="0" x2="0" y2="1"><stop stop-color="#0a1b2c"/><stop offset="1" stop-color="#07111d"/></linearGradient><linearGradient id="g"><stop stop-color="#f7d989"/><stop offset="1" stop-color="#bd8537"/></linearGradient></defs><rect width="1200" height="700" fill="url(#b)"/><circle cx="865" cy="170" r="120" fill="#f4c35d" opacity=".16"/><path d="M0 470l210-210 145 130 150-240 190 260 150-205 355 265v230H0z" fill="#1b3b51"/><path d="M0 540l250-170 170 170 205-220 165 210 185-130 225 140v160H0z" fill="#102638"/><path d="M520 700c20-125 65-222 137-291 68-64 139-103 212-115-75 48-126 101-154 158-31 64-36 147-15 248z" fill="url(#g)" opacity=".72"/><g fill="#07111d"><path d="M80 700V355l-65 120h45L10 565h60l-38 68h96l-38-68h60l-50-90h45z"/><path d="M1090 700V330l-72 132h48l-54 98h66l-42 76h108l-42-76h67l-55-98h50z"/><path d="M230 700V430l-51 93h34l-39 71h48l-30 55h77l-30-55h48l-39-71h34z"/></g></svg>
